# AST/ASF file generated using VICON BodyLanguage
# -----------------------------------------------
:version 1.10
:name VICON
:units
  mass 1.0
  length 0.45
  angle deg
:documentation
   .ast/.asf automatically generated from VICON data using
   VICON BodyBuilder and BodyLanguage model FoxedUp or BRILLIANT.MOD
:root
   order TX TY TZ RX RY RZ
   axis XYZ
   position 0 0 0  
   orientation 0 0 0 
:bonedata
  begin
     id 1 
     name lhipjoint
     direction 0.645893 -0.654526 0.392961 
     length 2.38111 
     axis 0 0 0  XYZ
  end
  begin
     id 2 
     name lfemur
     direction 0.34202 -0.939693 0  
     length 6.6822  
     axis 0 0 20  XYZ
    dof rx ry rz
    limits (-160.0 20.0)
           (-70.0 70.0)
           (-60.0 70.0)
  end
  begin
     id 3 
     name ltibia
     direction 0.34202 -0.939693 0   
     length 6.93904   
     axis 0 0 20   XYZ
    dof rx
    limits (-10.0 170.0)
  end
  begin
     id 4 
     name lfoot
     direction 0.0694967 -0.190941 0.979138   
     length 2.13616   
     axis -90 7.62852e-016 20   XYZ
    dof rx rz
    limits (-45.0 90.0)
           (-70.0 20.0)
  end
  begin
     id 5 
     name ltoes
     direction 1.535e-011 -4.2202e-011 1   
     length 1.07536   
     axis -90 7.62852e-016 20   XYZ
    dof rx
    limits (-90.0 20.0)
  end
  begin
     id 6 
     name rhipjoint
     direction -0.700219 -0.612087 0.367481   
     length 2.54621  
     axis 0 0 0  XYZ 
  end
  begin
     id 7 
     name rfemur
     direction -0.34202 -0.939693 0   
     length 6.55353   
     axis 0 0 -20   XYZ
    dof rx ry rz
    limits (-160.0 20.0)
           (-70.0 70.0)
           (-70.0 60.0)
  end
  begin
     id 8 
     name rtibia
     direction -0.34202 -0.939693 0   
     length 6.8736   
     axis 0 0 -20   XYZ
    dof rx
    limits (-10.0 170.0)
 end
 begin
     id 9 
     name rfoot
     direction -0.0679995 -0.186827 0.980037   
     length 2.1218  
     axis -90 -7.62852e-016 -20   XYZ
    dof rx rz
    limits (-45.0 90.0)
           (-20.0 70.0)
  end
  begin
     id 10 
     name rtoes
     direction -1.53589e-011 -4.21772e-011 1   
     length 1.06864   
     axis -90 -7.62852e-016 -20   XYZ
    dof rx
    limits (-90.0 20.0)
  end
  begin
     id 11 
     name lowerback
     direction -0.0416607 0.996347 -0.0745409   
     length 2.12205   
     axis 0 0 0   XYZ
    dof rx ry rz
    limits (-20.0 45.0)
           (-30.0 30.0)
           (-30.0 30.0)
  end
  begin
     id 12 
     name upperback
     direction -0.000153993 0.999276 -0.0380568   
     length 2.12759   
     axis 0 0 0   XYZ
    dof rx ry rz
    limits (-20.0 45.0)
           (-30.0 30.0)
           (-30.0 30.0)
  end
  begin
     id 13 
     name thorax
     direction 0.0187671 0.999821 -0.00241421   
     length 2.13704   
     axis 0 0 0   XYZ
    dof rx ry rz
    limits (-20.0 45.0)
           (-30.0 30.0)
           (-30.0 30.0)
  end
  begin
     id 14 
     name lowerneck
     direction 0.0268157 0.964865 0.261374   
     length 1.65253   
     axis 0 0 0   XYZ
    dof rx ry rz
    limits (-20.0 45.0)
           (-30.0 30.0)
           (-30.0 30.0)
  end
  begin
     id 15 
     name upperneck
     direction 0.00263774 0.939908 -0.341418   
     length 1.72375   
     axis 0 0 0   XYZ
    dof rx ry rz
    limits (-20.0 45.0)
           (-30.0 30.0)
           (-30.0 30.0)
  end
  begin
     id 16
     name head
     direction -0.00526001 0.989001 -0.147818  
     length 1.74878  
     axis 0 0 0   XYZ
    dof rx ry rz
    limits (-20.0 45.0)
           (-30.0 30.0)
           (-30.0 30.0)
  end
  begin
     id 17 
     name lclavicle
     direction 0.881214 0.461162 -0.103884  
     length 3.25108  
     axis 0 0 0   XYZ
    dof ry rz
    limits (-20.0 10.0)
           (0.0 20.0)
  end
  begin
     id 18 
     name lhumerus
     direction 1 -4.4899e-011 3.38092e-027   
     length 4.87408   
     axis 180 -30 -90   XYZ
    dof rx ry rz
    limits (-60.0 90.0)
           (-90.0 90.0)
           (-90.0 90.0)
  end
  begin
     id 19
     name lradius
     direction 1 -4.48931e-011 9.96288e-027   
     length 2.76729   
     axis 180 -30 -90   XYZ
    dof rx
    limits (-10.0 170.0)
  end
  begin
     id 20
     name lwrist
     direction 1 -4.4896e-011 1.50617e-026   
     length 1.38364   
     axis -9.31234e-015 90 90   XYZ
    dof ry
    limits (-180.0 0.0)
 end
  begin
     id 21 
     name lhand
     direction 1 -4.49038e-011 3.01286e-026   
     length 0.98922   
     axis -1.92217e-014 90 90   XYZ
    dof rx rz
    limits (-90.0 90.0)
           (-45.0 45.0)
  end
  begin
     id 22 
     name lfingers
     direction 1 -4.49051e-011 6.02588e-026   
     length 0.797535   
     axis -3.84436e-014 90 90   XYZ
    dof rx
    limits (0.0 90.0)
  end
  begin
     id 23
     name lthumb
     direction 0.707107 -6.34901e-011 0.707107   
     length 1.14511   
     axis -90 45 2.19363e-014   XYZ
    dof rx rz
    limits (-45.0 45.0)
           (-45.0 45.0)
  end
  begin
     id 24 
     name rclavicle
     direction -0.893894 0.441652 -0.0767889   
     length 3.29361  
     axis 0 0 0   XYZ 
    dof ry rz
    limits (-10.0 20.0)
           (-20.0 0.0)
  end
  begin
     id 25 
     name rhumerus
     direction -1 -4.48945e-011 8.0491e-028  
     length 4.71404   
     axis 180 30 90   XYZ
    dof rx ry rz
    limits (-90.0 60.0)
           (-90.0 90.0)
           (-90.0 90.0)
  end
  begin
     id 26 
     name rradius
     direction -1 -4.48986e-011 9.27795e-027   
     length 2.83468   
     axis 180 30 90   XYZ
    dof rx
    limits (-10.0 170.0)
  end
  begin
     id 27 
     name rwrist
     direction -1 -4.49029e-011 1.5064e-026   
     length 1.41734   
     axis -9.31234e-015 -90 -90   XYZ
    dof ry
    limits (-180.0 0.0)
  end
  begin
     id 28
     name rhand
     direction -1 -4.48857e-011 3.01165e-026   
     length 0.868195   
     axis -1.92217e-014 -90 -90   XYZ
    dof rx rz
    limits (-90.0 90.0)
           (-45.0 45.0)
  end
  begin
     id 29
     name rfingers
     direction -1 -4.49048e-011 6.02585e-026   
     length 0.699961   
     axis -3.84436e-014 -90 -90   XYZ
    dof rx
    limits (0.0 90.0)
  end
  begin
     id 30
     name rthumb
     direction -0.707107 -6.34854e-011 0.707107   
     length 1.00501   
     axis -90 -45 -2.19363e-014   XYZ
    dof rx rz
    limits (-45.0 45.0)
           (-45.0 45.0)
  end
:hierarchy
  begin
    root lhipjoint rhipjoint lowerback
    lhipjoint lfemur
    lfemur ltibia
    ltibia lfoot
    lfoot ltoes
    rhipjoint rfemur
    rfemur rtibia
    rtibia rfoot
    rfoot rtoes
    lowerback upperback
    upperback thorax
    thorax lowerneck lclavicle rclavicle
    lowerneck upperneck
    upperneck head
    lclavicle lhumerus
    lhumerus lradius
    lradius lwrist
    lwrist lhand lthumb
    lhand lfingers
    rclavicle rhumerus
    rhumerus rradius
    rradius rwrist
    rwrist rhand rthumb
    rhand rfingers
  end

#!OML:ASF H:\ManfredObstacles\Project 1\Capture day 2\Session 1\male.ASF
:FULLY-SPECIFIED
:DEGREES
16
root 1.41013 15.3464 20.0742 -171.876 -0.500489 172.36
lowerback 0.314992 1.08297 -10.3851
upperback 1.82233 1.23877 -3.22031
thorax 1.55619 0.357519 2.47234
lowerneck -35.178 -1.1117 -0.356224
upperneck 37.8513 -5.50479 4.24272
head 21.4748 -1.93813 0.538891
rclavicle -1.32192e-014 6.75868e-015
rhumerus -62.7824 8.58965 -95.206
rradius 88.4846
rwrist 6.11175
rhand -17.1266 -3.21396
rfingers 7.12502
rthumb 9.1132 -32.9971
lclavicle -1.32192e-014 6.75868e-015
lhumerus -47.9321 -28.9892 101.76
lradius 103.835
lwrist -19.4873
lhand -14.4638 4.11522
lfingers 7.12502
lthumb 11.6819 33.7695
rfemur -23.3366 -3.83774 14.1711
rtibia 82.5446
rfoot 6.32226 -19.4399
rtoes -17.6283
lfemur -15.9337 -4.57563 -30.3234
ltibia 39.628
lfoot -1.87407 23.3037
ltoes -9.39966
17
root 1.40981 15.3566 19.7606 -171.636 -0.563478 172.341
lowerback 0.363001 0.59736 -10.4471
upperback 1.81964 0.589816 -3.12811
thorax 1.60277 0.0337614 2.59802
lowerneck -35.1802 -0.680377 0.187294
upperneck 37.6205 -4.90406 3.85566
head 21.2514 -1.68521 0.414077
rclavicle 6.06293e-015 -8.34896e-015
rhumerus -64.0267 7.99989 -93.9761
rradius 88.1521
rwrist 5.86052
rhand -16.9851 -2.87143
rfingers 7.12502
rthumb 9.2497 -32.6485
lclavicle 6.06293e-015 -8.34896e-015
lhumerus -46.5094 -28.7838 101.829
lradius 104.292
lwrist -19.4971
lhand -14.6919 4.0878
lfingers 7.12502
lthumb 11.4619 33.7545
rfemur -25.9663 -3.90796 14.2077
rtibia 83.2091
rfoot 4.91344 -20.0786
rtoes -18.0358
lfemur -14.5927 -4.72402 -30.3886
ltibia 39.0582
lfoot -1.56603 23.2209
ltoes -9.86077
18
root 1.41103 15.3798 19.4439 -171.422 -0.712329 172.35
lowerback 0.456319 0.0677916 -10.4522
upperback 1.7981 -0.120756 -2.99341
thorax 1.61552 -0.315692 2.7346
lowerneck -35.1457 -0.213222 0.705899
upperneck 37.44 -4.2109 3.39214
head 21.0585 -1.41686 0.279369
rclavicle -1.88845e-015 -2.18663e-014
rhumerus -65.3384 7.66597 -92.8159
rradius 88.1143
rwrist 5.47573
rhand -16.7239 -2.59361
rfingers 7.12502
rthumb 9.50171 -32.3594
lclavicle -1.88845e-015 -2.18663e-014
lhumerus -45.2254 -28.603 101.898
lradius 104.844
lwrist -19.4418
lhand -14.9352 4.16075
lfingers 7.12502
lthumb 11.2273 33.8403
rfemur -28.4125 -3.9834 14.2908
rtibia 83.3768
rfoot 3.56484 -20.6409
rtoes -18.5553
lfemur -13.1679 -4.91013 -30.4103
ltibia 38.3369
lfoot -1.09481 22.8596
ltoes -10.2312
19
root 1.4141 15.4155 19.1232 -171.221 -0.944021 172.375
lowerback 0.564241 -0.497312 -10.4031
upperback 1.7518 -0.878889 -2.83279
thorax 1.6035 -0.684693 2.86719
lowerneck -35.0995 0.256819 1.13623
upperneck 37.3655 -3.4851 2.91606
head 20.9468 -1.15678 0.160683
rclavicle 2.88238e-015 4.09496e-014
rhumerus -66.6926 7.53214 -91.7497
rradius 88.3033
rwrist 4.89068
rhand -16.4447 -2.40478
rfingers 7.12502
rthumb 9.77108 -32.1581
lclavicle 2.88238e-015 4.09496e-014
lhumerus -44.0835 -28.4812 101.932
lradius 105.465
lwrist -19.3741
lhand -15.1477 4.31628
lfingers 7.12502
lthumb 11.0223 34.0069
rfemur -30.67 -4.06044 14.4013
rtibia 83.0529
rfoot 2.36531 -21.1011
rtoes -18.9212
lfemur -11.6766 -5.12187 -30.3971
ltibia 37.4657
lfoot -0.428046 22.2157
ltoes -10.5432
20
root 1.4191 15.4638 18.798 -171.016 -1.21176 172.421
lowerback 0.663452 -1.07161 -10.3016
upperback 1.68247 -1.64724 -2.66067
thorax 1.57568 -1.05583 2.98209
lowerneck -35.0027 -0.735018 2.64945
upperneck 37.4111 -1.96976 1.53481
head 20.8469 0.452266 0.000928388
rclavicle -5.96354e-015 -3.29983e-014
rhumerus -68.0419 7.52702 -90.7801
rradius 88.6516
rwrist 4.08477
rhand -16.2094 -2.26865
rfingers 7.12502
rthumb 9.99817 -32.0112
lclavicle -5.96354e-015 -3.29983e-014
lhumerus -43.0676 -28.4597 101.9
lradius 106.12
lwrist -19.3343
lhand -15.3604 4.51582
lfingers 7.12502
lthumb 10.8171 34.2173
rfemur -32.7451 -4.09346 14.526
rtibia 82.2497
rfoot 1.33539 -21.4568
rtoes -19.0116
lfemur -10.1545 -5.30888 -30.349
ltibia 36.4522
lfoot 0.421141 21.2867
ltoes -10.7775
21
root 1.42603 15.5243 18.4679 -170.794 -1.50879 172.473
lowerback 0.728388 -1.65984 -10.1696
upperback 1.60051 -2.42828 -2.47388
thorax 1.55728 -1.43244 3.09322
lowerneck -34.9172 -0.260885 2.99295
upperneck 37.4167 -1.21277 1.02294
head 20.8199 0.68967 -0.120527
rclavicle 1.15295e-014 3.93594e-014
rhumerus -69.3387 7.63081 -89.8687
rradius 89.1045
rwrist 3.17149
rhand -16.0052 -2.103
rfingers 7.12502
rthumb 10.1951 -31.836
lclavicle 1.15295e-014 3.93594e-014
lhumerus -42.173 -28.5127 101.795
lradius 106.804
lwrist -19.323
lhand -15.5621 4.745
lfingers 7.12502
lthumb 10.6226 34.4565
rfemur -34.6374 -4.08475 14.6453
rtibia 80.9814
rfoot 0.510044 -21.7057
rtoes -18.6919
lfemur -8.62419 -5.45979 -30.2744
ltibia 35.2985
lfoot 1.44766 20.0754
ltoes -10.9553
22
root 1.43486 15.596 18.1329 -170.547 -1.79148 172.524
lowerback 0.738531 -2.20876 -10.0125
upperback 1.4915 -3.1527 -2.31555
thorax 1.53269 -1.78014 3.15897
lowerneck -34.6845 0.188526 3.41774
upperneck 37.3869 -0.506256 0.467335
head 20.7419 0.917328 -0.291504
rclavicle 6.4605e-015 6.24184e-014
rhumerus -70.614 7.66431 -89.0277
rradius 89.6354
rwrist 2.28981
rhand -15.8097 -2.00256
rfingers 7.12502
rthumb 10.3837 -31.7262
lclavicle 6.4605e-015 6.24184e-014
lhumerus -41.4691 -28.7679 101.626
lradius 107.508
lwrist -19.2846
lhand -15.7588 4.94863
lfingers 7.12502
lthumb 10.4328 34.6698
rfemur -36.3502 -3.9946 14.7401
rtibia 79.2648
rfoot -0.103369 -21.8837
rtoes -18.0242
lfemur -7.10322 -5.54801 -30.1846
ltibia 34.0085
lfoot 2.6733 18.605
ltoes -11.1161
23
root 1.44557 15.6776 17.7926 -170.275 -2.05015 172.566
lowerback 0.677009 -2.74597 -9.886
upperback 1.40386 -3.85069 -2.13826
thorax 1.57111 -2.11877 3.25477
lowerneck -34.4329 0.642941 3.83531
upperneck 37.3141 0.216266 -0.0978892
head 20.6446 1.14743 -0.462521
rclavicle 6.20208e-014 3.61788e-014
rhumerus -71.7385 7.74225 -88.2004
rradius 90.2122
rwrist 1.49305
rhand -15.6018 -1.98015
rfingers 7.12502
rthumb 10.5843 -31.6936
lclavicle 6.20208e-014 3.61788e-014
lhumerus -40.8456 -29.1218 101.39
lradius 108.211
lwrist -19.2841
lhand -15.9769 5.14338
lfingers 7.12502
lthumb 10.2224 34.875
rfemur -37.8727 -3.83374 14.7952
rtibia 77.1223
rfoot -0.501159 -22.0152
rtoes -17.3324
lfemur -5.59607 -5.56883 -30.0849
ltibia 32.5832
lfoot 4.09963 16.9029
ltoes -11.2124
24
root 1.45831 15.767 17.4469 -169.972 -2.25802 172.606
lowerback 0.542802 -3.26824 -9.77033
upperback 1.30394 -4.52043 -1.95124
thorax 1.63694 -2.44428 3.3594
lowerneck -34.1301 1.10609 4.26844
upperneck 37.2179 0.958619 -0.680482
head 20.5336 1.38672 -0.639275
rclavicle -8.24956e-015 -1.15295e-014
rhumerus -72.7696 7.85335 -87.3926
rradius 90.8041
rwrist 0.882921
rhand -15.333 -1.96268
rfingers 7.12502
rthumb 10.8436 -31.6627
lclavicle -8.24956e-015 -1.15295e-014
lhumerus -40.3978 -29.5134 101.114
lradius 108.928
lwrist -19.3193
lhand -16.1952 5.32334
lfingers 7.12502
lthumb 10.0118 35.0652
rfemur -39.2074 -3.58108 14.8128
rtibia 74.5766
rfoot -0.810475 -22.1274
rtoes -16.9229
lfemur -4.11156 -5.51503 -29.9671
ltibia 31.0241
lfoot 5.74989 15.0151
ltoes -11.2103
25
root 1.47275 15.8617 17.0959 -169.652 -2.41562 172.644
lowerback 0.355176 -3.77255 -9.67174
upperback 1.19152 -5.16086 -1.75163
thorax 1.72024 -2.75587 3.47928
lowerneck -33.837 1.59382 4.73807
upperneck 37.0994 1.73118 -1.29662
head 20.4278 1.63829 -0.830874
rclavicle -4.29375e-014 7.95139e-016
rhumerus -73.7146 8.00223 -86.595
rradius 91.4028
rwrist 0.509753
rhand -14.984 -1.94369
rfingers 7.12502
rthumb 11.1802 -31.6258
lclavicle -4.29375e-014 7.95139e-016
lhumerus -40.1103 -29.9175 100.798
lradius 109.648
lwrist -19.4325
lhand -16.337 5.43054
lfingers 7.12502
lthumb 9.87506 35.179
rfemur -40.3346 -3.24637 14.7838
rtibia 71.6522
rfoot -0.976831 -22.2456
rtoes -16.8959
lfemur -2.63065 -5.40987 -29.8383
ltibia 29.3263
lfoot 7.67399 13.0086
ltoes -11.061
26
root 1.48861 15.9603 16.7391 -169.32 -2.50892 172.693
lowerback 0.125828 -4.24924 -9.57301
upperback 1.06495 -5.7609 -1.54064
thorax 1.81009 -3.04729 3.60457
lowerneck -33.5505 2.08372 5.21642
upperneck 36.9816 2.50881 -1.91857
head 20.3405 1.89504 -1.02442
rclavicle -8.24956e-014 5.1684e-015
rhumerus -74.5779 8.18521 -85.8242
rradius 91.9935
rwrist 0.313654
rhand -14.6024 -1.90389
rfingers 7.12502
rthumb 11.5482 -31.5657
lclavicle -8.24956e-014 5.1684e-015
lhumerus -39.9992 -30.3188 100.464
lradius 110.366
lwrist -19.6038
lhand -16.4193 5.45582
lfingers 7.12502
lthumb 9.79566 35.208
rfemur -41.2468 -2.82395 14.7181
rtibia 68.374
rfoot -1.05338 -22.3475
rtoes -17.3452
lfemur -1.14231 -5.25223 -29.6844
ltibia 27.4883
lfoot 9.87489 10.974
ltoes -10.7252
27
root 1.50557 16.0606 16.3768 -168.983 -2.54976 172.762
lowerback -0.139945 -4.69274 -9.45537
upperback 0.930943 -6.31406 -1.32265
thorax 1.90709 -3.31543 3.72093
lowerneck -33.3732 2.594 5.73143
upperneck 36.8668 3.29351 -2.56086
head 20.3014 2.15605 -1.23173
rclavicle 7.0171e-014 2.06736e-014
rhumerus -75.365 8.38592 -85.0932
rradius 92.5871
rwrist 0.184717
rhand -14.2543 -1.83269
rfingers 7.12502
rthumb 11.8839 -31.4754
lclavicle 7.0171e-014 2.06736e-014
lhumerus -40.027 -30.7328 100.11
lradius 111.069
lwrist -19.7934
lhand -16.4249 5.40012
lfingers 7.12502
lthumb 9.79019 35.1525
rfemur -41.9428 -2.30915 14.6132
rtibia 64.7768
rfoot -1.02753 -22.4283
rtoes -17.9675
lfemur 0.374134 -5.06997 -29.5041
ltibia 25.506
lfoot 12.4095 8.98876
ltoes -10.2304
28
root 1.52276 16.1611 16.0095 -168.636 -2.54452 172.86
lowerback -0.445293 -5.10527 -9.31022
upperback 0.78921 -6.82284 -1.08698
thorax 2.01278 -3.5613 3.8345
lowerneck -33.1581 3.09682 6.26265
upperneck 36.7036 4.06928 -3.23083
head 20.2398 2.41236 -1.45717
rclavicle -4.41302e-014 -2.70347e-014
rhumerus -76.0696 8.618 -84.3952
rradius 93.1673
rwrist 0.0641402
rhand -13.9724 -1.72731
rfingers 7.12502
rthumb 12.1558 -31.3542
lclavicle -4.41302e-014 -2.70347e-014
lhumerus -40.1605 -31.1408 99.7453
lradius 111.745
lwrist -20.017
lhand -16.3598 5.2725
lfingers 7.12502
lthumb 9.85302 35.022
rfemur -42.439 -1.70056 14.4718
rtibia 60.9039
rfoot -0.86271 -22.4723
rtoes -18.5396
lfemur 1.91179 -4.87864 -29.2919
ltibia 23.392
lfoot 15.2628 7.1387
ltoes -9.49241
